<svg width="1050" height="266" viewBox="0 0 1050 266" fill="none" xmlns="http://www.w3.org/2000/svg">
<g filter="url(#filter0_d_1_30)">
<path d="M69 52.9V64.9H54.6V128.5H18.6V64.9H4.2V52.9H69ZM140.977 64.9H121.777C114.097 64.9 112.177 66.82 112.177 74.5V79.3H133.777V91.3H112.177V106.9C112.177 114.58 114.097 116.5 121.777 116.5H140.977V128.5H97.7766C80.4966 128.5 76.1766 124.18 76.1766 106.9V74.5C76.1766 57.22 80.4966 52.9 97.7766 52.9H140.977V64.9ZM183.581 90.7C183.581 111.34 185.501 116.5 193.181 116.5H212.381V128.5H176.981C152.981 128.5 146.981 120.94 146.981 90.7C146.981 60.46 152.981 52.9 176.981 52.9H212.381V64.9H193.181C185.501 64.9 183.581 70.06 183.581 90.7ZM271.116 79.3V52.9H307.116V128.5H271.116V91.3H256.716V128.5H220.716V52.9H256.716V79.3H271.116ZM380.344 52.9C397.624 52.9 401.944 57.22 401.944 74.5V128.5H365.944V74.5C365.944 66.82 364.024 64.9 356.344 64.9H351.544V128.5H315.544V52.9H380.344ZM437.972 52.9H470.372C492.452 52.9 497.972 60.46 497.972 90.7C497.972 120.7 492.332 128.5 470.372 128.5H437.972C415.772 128.5 410.372 120.94 410.372 90.7C410.372 60.46 415.892 52.9 437.972 52.9ZM461.372 90.7C461.372 70.06 459.932 64.9 454.172 64.9C448.172 64.9 446.972 70.06 446.972 90.7C446.972 111.34 448.412 116.5 454.172 116.5C459.932 116.5 461.372 111.34 461.372 90.7ZM550.223 99.46L560.423 52.9H601.223L576.983 128.5H523.463L499.223 52.9H540.023L550.223 99.46ZM670.805 52.9C688.085 52.9 692.405 57.22 692.405 74.5V128.5H656.405V91.3H642.005V128.5H606.005V74.5C606.005 57.22 610.325 52.9 627.605 52.9H670.805ZM642.005 79.3H656.405V74.5C656.405 66.82 654.965 64.9 649.205 64.9C643.445 64.9 642.005 66.82 642.005 74.5V79.3ZM764.461 52.9V64.9H750.061V128.5H714.061V64.9H699.661V52.9H764.461ZM836.438 64.9H817.238C809.558 64.9 807.638 66.82 807.638 74.5V79.3H829.238V91.3H807.638V106.9C807.638 114.58 809.558 116.5 817.238 116.5H836.438V128.5H793.238C775.958 128.5 771.638 124.18 771.638 106.9V74.5C771.638 57.22 775.958 52.9 793.238 52.9H836.438V64.9ZM847.186 84.1L851.986 72.1H844.786V52.9H866.386V72.1L856.786 84.1H847.186ZM881.889 52.9H937.929C951.009 52.9 957.609 68.74 948.369 77.98L919.209 107.14C916.089 110.26 915.369 112.06 915.369 116.5H952.809V128.5H874.809V111.7C874.809 103.9 876.129 100.66 881.649 95.14L903.489 73.3C908.529 68.26 907.089 64.9 900.009 64.9H879.489L881.889 52.9ZM1036.8 128.5H1000.8V114.1H961.2V102.1L1002 52.9H1036.8V102.1H1045.2V114.1H1036.8V128.5ZM979.2 102.1H1000.8V75.1L979.2 102.1Z" fill="url(#paint0_linear_1_30)"/>
</g>
<g style="mix-blend-mode:lighten">
<path d="M74.8242 180.91C74.8242 173.445 80.7852 168.168 89.3984 168.168C97.7109 168.168 103.426 172.98 103.426 179.57C103.426 184.492 100.145 188.184 95.7969 192.504L86.1719 201.773V201.938H103.973V208.5H75.2891V202.949L90.1641 188.621C94.1562 184.629 95.3867 182.633 95.3867 179.898C95.3867 176.945 92.7891 174.594 89.125 174.594C85.2969 174.594 82.4805 177.273 82.4805 180.91V181.047H74.8242V180.91ZM127.188 208.5V201.473H107.555V194.445C111 187.883 115.293 180.965 123.387 169.043H135.035V194.855H140.176V201.473H135.035V208.5H127.188ZM114.801 194.883V195.102H127.352V174.895H127.188C121.445 183.316 118 188.703 114.801 194.883ZM163.254 195.949H145.289V188.977H163.254V195.949ZM204.242 208.5H195.984V191.875H178.211V208.5H169.953V169.043H178.211V185.066H195.984V169.043H204.242V208.5ZM223.574 209.129C214.715 209.129 209.055 203.441 209.055 193.816C209.055 184.328 214.797 178.559 223.574 178.559C232.352 178.559 238.094 184.301 238.094 193.816C238.094 203.469 232.434 209.129 223.574 209.129ZM223.574 203.031C227.484 203.031 229.973 199.723 229.973 193.844C229.973 188.02 227.457 184.656 223.574 184.656C219.691 184.656 217.148 188.02 217.148 193.844C217.148 199.723 219.637 203.031 223.574 203.031ZM269.293 179.188V208.5H261.582V203.223H261.418C259.969 206.914 257.07 209.047 252.641 209.047C246.297 209.047 242.086 204.918 242.086 198.082V179.188H250.07V196.414C250.07 200.324 252.012 202.402 255.539 202.402C259.094 202.402 261.309 199.859 261.309 195.977V179.188H269.293ZM274.488 208.5V179.188H282.199V184.465H282.363C283.402 180.746 285.891 178.723 289.336 178.723C290.266 178.723 291.059 178.859 291.605 179.023V186.051C290.949 185.777 289.855 185.586 288.707 185.586C284.77 185.586 282.473 187.992 282.473 192.121V208.5H274.488ZM294.395 187.801C294.395 182.223 299.234 178.559 306.754 178.559C314.109 178.559 318.895 182.277 319.004 187.965H311.648C311.484 185.613 309.598 184.164 306.645 184.164C303.883 184.164 302.078 185.422 302.078 187.309C302.078 188.758 303.336 189.742 305.906 190.344L311.512 191.547C317.391 192.859 319.77 195.184 319.77 199.559C319.77 205.328 314.465 209.129 306.727 209.129C298.906 209.129 294.094 205.355 293.656 199.641H301.449C301.832 202.102 303.773 203.523 306.945 203.523C309.98 203.523 311.812 202.32 311.812 200.406C311.812 198.93 310.828 198.109 308.203 197.48L302.789 196.277C297.238 195.02 294.395 192.121 294.395 187.801ZM372.306 199.092C371.858 200.735 371.634 202.041 371.634 203.012C371.634 204.281 372.026 205.14 372.81 205.588C373.631 206.036 374.938 206.26 376.73 206.26L376.058 208.5H358.194L358.81 206.26C359.93 206.26 360.882 206.185 361.666 206.036C362.45 205.849 363.122 205.513 363.682 205.028C364.279 204.543 364.783 203.871 365.194 203.012C365.604 202.153 365.996 201.033 366.37 199.652L369.45 187.948H347.722L344.81 199.092C344.362 200.735 344.138 202.041 344.138 203.012C344.138 204.281 344.53 205.14 345.314 205.588C346.135 206.036 347.46 206.26 349.29 206.26L348.562 208.5H330.698L331.314 206.26C332.434 206.26 333.386 206.185 334.17 206.036C334.954 205.849 335.626 205.513 336.186 205.028C336.783 204.543 337.287 203.871 337.698 203.012C338.108 202.153 338.5 201.033 338.874 199.652L345.426 174.9C345.986 172.847 346.266 171.316 346.266 170.308C346.266 169.151 345.836 168.423 344.978 168.124C344.156 167.788 342.738 167.62 340.722 167.62L341.338 165.38H359.538L358.922 167.62C357.69 167.62 356.663 167.751 355.842 168.012C355.02 168.236 354.311 168.684 353.714 169.356C353.116 170.028 352.575 170.961 352.09 172.156C351.642 173.351 351.175 174.9 350.69 176.804L348.506 185.092H370.234L372.922 174.9C373.482 172.847 373.762 171.316 373.762 170.308C373.762 169.151 373.332 168.423 372.474 168.124C371.652 167.788 370.234 167.62 368.218 167.62L368.834 165.38H387.034L386.418 167.62C385.186 167.62 384.159 167.751 383.338 168.012C382.516 168.236 381.807 168.684 381.21 169.356C380.612 170.028 380.071 170.961 379.586 172.156C379.138 173.351 378.671 174.9 378.186 176.804L372.306 199.092ZM399.967 181.172C398.548 181.172 397.074 181.825 395.543 183.132C394.05 184.439 392.687 186.081 391.455 188.06C390.223 190.001 389.215 192.111 388.431 194.388C387.647 196.628 387.255 198.719 387.255 200.66C387.255 202.004 387.535 203.087 388.095 203.908C388.655 204.692 389.42 205.084 390.391 205.084C391.25 205.084 392.146 204.748 393.079 204.076C394.012 203.367 394.908 202.452 395.767 201.332C396.663 200.175 397.503 198.868 398.287 197.412C399.071 195.956 399.762 194.463 400.359 192.932C400.956 191.364 401.423 189.833 401.759 188.34C402.095 186.847 402.263 185.503 402.263 184.308C402.263 183.337 402.058 182.572 401.647 182.012C401.236 181.452 400.676 181.172 399.967 181.172ZM405.735 178.82H410.383L407.191 187.388C406.668 188.807 406.146 190.319 405.623 191.924C405.138 193.529 404.69 195.079 404.279 196.572C403.906 198.065 403.607 199.428 403.383 200.66C403.159 201.892 403.047 202.807 403.047 203.404C403.047 204.487 403.402 205.028 404.111 205.028C404.634 205.028 405.38 204.487 406.351 203.404C407.359 202.321 408.479 200.921 409.711 199.204L411.167 200.38C409.599 203.143 407.9 205.289 406.071 206.82C404.279 208.313 402.543 209.06 400.863 209.06C400.004 209.06 399.332 208.743 398.847 208.108C398.399 207.436 398.175 206.353 398.175 204.86C398.175 204.524 398.175 204.132 398.175 203.684C398.212 203.236 398.268 202.639 398.343 201.892L398.119 201.836C397.559 202.881 396.887 203.852 396.103 204.748C395.356 205.607 394.535 206.372 393.639 207.044C392.743 207.679 391.81 208.164 390.839 208.5C389.868 208.873 388.916 209.06 387.983 209.06C386.079 209.06 384.586 208.351 383.503 206.932C382.458 205.476 381.935 203.479 381.935 200.94C381.935 198.364 382.476 195.732 383.559 193.044C384.642 190.356 386.042 187.929 387.759 185.764C389.476 183.561 391.38 181.769 393.471 180.388C395.562 178.969 397.615 178.26 399.631 178.26C400.863 178.26 401.871 178.559 402.655 179.156C403.439 179.716 404.074 180.649 404.559 181.956L405.735 178.82ZM434.201 199.484C432.633 202.583 430.803 204.953 428.713 206.596C426.659 208.239 424.457 209.06 422.105 209.06C419.678 209.06 417.737 208.239 416.281 206.596C414.825 204.916 414.097 202.695 414.097 199.932C414.097 198.289 414.339 196.609 414.825 194.892C415.31 193.175 415.963 191.513 416.785 189.908C417.606 188.303 418.577 186.791 419.697 185.372C420.817 183.953 422.011 182.721 423.281 181.676C424.55 180.631 425.857 179.809 427.201 179.212C428.582 178.577 429.926 178.26 431.233 178.26C433.025 178.26 434.499 178.745 435.657 179.716C436.814 180.687 437.393 181.9 437.393 183.356C437.393 184.289 437.113 185.055 436.553 185.652C436.03 186.212 435.339 186.492 434.481 186.492C433.622 186.492 432.913 186.231 432.353 185.708C431.83 185.148 431.569 184.476 431.569 183.692C431.569 183.207 431.643 182.815 431.793 182.516C431.942 182.217 432.017 181.937 432.017 181.676C432.017 181.153 431.569 180.892 430.673 180.892C429.441 180.892 428.19 181.471 426.921 182.628C425.651 183.785 424.494 185.279 423.449 187.108C422.441 188.937 421.601 190.991 420.929 193.268C420.294 195.508 419.977 197.748 419.977 199.988C419.977 201.78 420.313 203.199 420.985 204.244C421.694 205.252 422.665 205.756 423.897 205.756C424.569 205.756 425.259 205.569 425.969 205.196C426.715 204.823 427.462 204.319 428.209 203.684C428.955 203.012 429.665 202.228 430.337 201.332C431.046 200.436 431.681 199.447 432.241 198.364L434.201 199.484ZM458.023 204.02C459.106 204.02 460.637 202.62 462.615 199.82L464.071 200.604C461.383 206.241 458.602 209.06 455.727 209.06C454.831 209.06 454.085 208.743 453.487 208.108C452.927 207.473 452.293 206.335 451.583 204.692L447.831 195.732L446.599 196.292L443.071 208.5H437.975L448.783 168.348C449.045 167.34 449.175 166.649 449.175 166.276C449.175 165.492 448.821 164.969 448.111 164.708C447.402 164.409 446.002 164.26 443.911 164.26L444.471 162.58L455.615 162.02L449.791 183.58L450.015 183.636C452.181 180.015 454.925 178.204 458.247 178.204C460.002 178.204 461.383 178.633 462.391 179.492C463.399 180.313 463.903 181.433 463.903 182.852C463.903 184.607 463.026 186.361 461.271 188.116C459.554 189.871 457.146 191.457 454.047 192.876L452.591 193.548L455.447 200.94C456.194 202.993 457.053 204.02 458.023 204.02ZM447.103 193.492C448.709 192.932 450.202 192.279 451.583 191.532C452.965 190.785 454.141 190.001 455.111 189.18C456.119 188.359 456.903 187.537 457.463 186.716C458.023 185.857 458.303 185.055 458.303 184.308C458.303 182.777 457.538 182.012 456.007 182.012C455.223 182.012 454.402 182.329 453.543 182.964C452.685 183.561 451.845 184.383 451.023 185.428C450.202 186.473 449.437 187.705 448.727 189.124C448.055 190.505 447.514 191.961 447.103 193.492ZM485.334 181.172C483.916 181.172 482.441 181.825 480.91 183.132C479.417 184.439 478.054 186.081 476.822 188.06C475.59 190.001 474.582 192.111 473.798 194.388C473.014 196.628 472.622 198.719 472.622 200.66C472.622 202.004 472.902 203.087 473.462 203.908C474.022 204.692 474.788 205.084 475.758 205.084C476.617 205.084 477.513 204.748 478.446 204.076C479.38 203.367 480.276 202.452 481.134 201.332C482.03 200.175 482.87 198.868 483.654 197.412C484.438 195.956 485.129 194.463 485.726 192.932C486.324 191.364 486.79 189.833 487.126 188.34C487.462 186.847 487.63 185.503 487.63 184.308C487.63 183.337 487.425 182.572 487.014 182.012C486.604 181.452 486.044 181.172 485.334 181.172ZM491.102 178.82H495.75L492.558 187.388C492.036 188.807 491.513 190.319 490.99 191.924C490.505 193.529 490.057 195.079 489.646 196.572C489.273 198.065 488.974 199.428 488.75 200.66C488.526 201.892 488.414 202.807 488.414 203.404C488.414 204.487 488.769 205.028 489.478 205.028C490.001 205.028 490.748 204.487 491.718 203.404C492.726 202.321 493.846 200.921 495.078 199.204L496.534 200.38C494.966 203.143 493.268 205.289 491.438 206.82C489.646 208.313 487.91 209.06 486.23 209.06C485.372 209.06 484.7 208.743 484.214 208.108C483.766 207.436 483.542 206.353 483.542 204.86C483.542 204.524 483.542 204.132 483.542 203.684C483.58 203.236 483.636 202.639 483.71 201.892L483.486 201.836C482.926 202.881 482.254 203.852 481.47 204.748C480.724 205.607 479.902 206.372 479.006 207.044C478.11 207.679 477.177 208.164 476.206 208.5C475.236 208.873 474.284 209.06 473.35 209.06C471.446 209.06 469.953 208.351 468.87 206.932C467.825 205.476 467.302 203.479 467.302 200.94C467.302 198.364 467.844 195.732 468.926 193.044C470.009 190.356 471.409 187.929 473.126 185.764C474.844 183.561 476.748 181.769 478.838 180.388C480.929 178.969 482.982 178.26 484.998 178.26C486.23 178.26 487.238 178.559 488.022 179.156C488.806 179.716 489.441 180.649 489.926 181.956L491.102 178.82ZM511.84 183.468L507.192 198.868C506.557 200.884 506.221 202.415 506.184 203.46C506.184 203.796 506.258 204.095 506.408 204.356C506.594 204.617 506.893 204.748 507.304 204.748C507.976 204.748 508.685 204.505 509.432 204.02C510.178 203.497 510.888 202.9 511.56 202.228C512.269 201.519 512.885 200.809 513.408 200.1C513.968 199.353 514.378 198.775 514.64 198.364L516.264 199.316C515.629 200.585 514.826 201.817 513.856 203.012C512.885 204.169 511.858 205.196 510.776 206.092C509.693 206.988 508.592 207.716 507.472 208.276C506.389 208.799 505.4 209.06 504.504 209.06C503.197 209.06 502.245 208.78 501.648 208.22C501.088 207.66 500.808 206.727 500.808 205.42C500.808 204.673 500.938 203.665 501.2 202.396C501.461 201.127 501.909 199.391 502.544 197.188L506.688 183.468H501.872L502.6 180.892H507.472L510.384 171.26H515.536L512.624 180.892H518.728L517.944 183.468H511.84ZM539.069 191.084C539.703 189.18 540.151 187.668 540.413 186.548C540.711 185.428 540.861 184.439 540.861 183.58C540.861 182.721 540.711 182.124 540.413 181.788C540.151 181.415 539.685 181.228 539.013 181.228C537.855 181.228 536.717 181.676 535.597 182.572C534.477 183.468 533.338 184.868 532.181 186.772C531.061 188.676 529.885 191.103 528.653 194.052C527.421 197.001 526.114 200.529 524.733 204.636L523.445 208.5H518.741L529.829 170.532C530.09 169.599 530.295 168.777 530.445 168.068C530.594 167.359 530.669 166.799 530.669 166.388C530.669 165.641 530.314 165.119 529.605 164.82C528.895 164.521 527.589 164.335 525.685 164.26L526.077 162.02H537.501L531.117 183.636L531.285 183.748C532.479 181.993 533.861 180.649 535.429 179.716C536.997 178.745 538.639 178.26 540.357 178.26C542.149 178.26 543.511 178.783 544.445 179.828C545.378 180.873 545.845 182.385 545.845 184.364C545.845 185.596 545.658 187.033 545.285 188.676C544.911 190.319 544.333 192.204 543.549 194.332C542.802 196.348 542.223 197.935 541.813 199.092C541.402 200.249 541.103 201.145 540.917 201.78C540.73 202.377 540.599 202.788 540.525 203.012C540.487 203.236 540.469 203.423 540.469 203.572C540.469 204.431 540.823 204.86 541.533 204.86C542.279 204.86 543.194 204.431 544.277 203.572C545.397 202.676 546.517 201.444 547.637 199.876L549.205 201.052C548.607 202.135 547.861 203.161 546.965 204.132C546.106 205.103 545.154 205.961 544.109 206.708C543.101 207.417 542.055 207.996 540.973 208.444C539.927 208.855 538.938 209.06 538.005 209.06C536.997 209.06 536.269 208.78 535.821 208.22C535.373 207.66 535.149 206.764 535.149 205.532C535.149 204.897 535.205 204.225 535.317 203.516C535.429 202.807 535.615 201.929 535.877 200.884C536.175 199.801 536.567 198.495 537.053 196.964C537.575 195.396 538.247 193.436 539.069 191.084ZM561.761 209.06C560.492 209.06 559.297 208.817 558.177 208.332C557.094 207.809 556.142 207.063 555.321 206.092C554.5 205.121 553.846 203.945 553.361 202.564C552.876 201.145 552.633 199.559 552.633 197.804C552.633 195.377 553.081 192.988 553.977 190.636C554.91 188.284 556.124 186.193 557.617 184.364C559.11 182.535 560.809 181.06 562.713 179.94C564.654 178.82 566.652 178.26 568.705 178.26C570.049 178.26 571.281 178.521 572.401 179.044C573.558 179.529 574.529 180.257 575.313 181.228C576.134 182.161 576.769 183.3 577.217 184.644C577.702 185.951 577.945 187.407 577.945 189.012C577.945 191.364 577.478 193.735 576.545 196.124C575.612 198.513 574.38 200.66 572.849 202.564C571.356 204.468 569.638 206.036 567.697 207.268C565.756 208.463 563.777 209.06 561.761 209.06ZM562.097 206.26C563.366 206.26 564.617 205.607 565.849 204.3C567.118 202.993 568.238 201.351 569.209 199.372C570.217 197.356 571.02 195.172 571.617 192.82C572.252 190.468 572.569 188.228 572.569 186.1C572.569 184.121 572.214 182.759 571.505 182.012C570.833 181.265 569.9 180.892 568.705 180.892C567.884 180.892 567.044 181.191 566.185 181.788C565.364 182.348 564.58 183.132 563.833 184.14C563.086 185.148 562.377 186.305 561.705 187.612C561.07 188.919 560.51 190.3 560.025 191.756C559.54 193.212 559.166 194.705 558.905 196.236C558.644 197.729 558.513 199.167 558.513 200.548C558.513 202.639 558.849 204.113 559.521 204.972C560.193 205.831 561.052 206.26 562.097 206.26ZM604.402 181.172C603.506 181.172 602.479 181.639 601.322 182.572C600.202 183.468 599.044 184.681 597.85 186.212C596.692 187.705 595.572 189.423 594.49 191.364C593.407 193.305 592.492 195.284 591.746 197.3L587.602 208.5H582.674L586.818 195.676C587.49 193.623 588.05 191.868 588.498 190.412C588.946 188.956 589.3 187.743 589.562 186.772C589.86 185.764 590.066 184.961 590.178 184.364C590.29 183.729 590.346 183.225 590.346 182.852C590.346 181.844 590.028 181.34 589.394 181.34C588.983 181.34 588.498 181.601 587.938 182.124C587.378 182.647 586.799 183.337 586.202 184.196C585.642 185.017 585.1 185.969 584.578 187.052C584.055 188.135 583.607 189.236 583.234 190.356L581.554 189.516C582.86 185.671 584.316 182.833 585.922 181.004C587.564 179.175 589.431 178.26 591.522 178.26C592.716 178.26 593.556 178.596 594.042 179.268C594.564 179.94 594.826 181.079 594.826 182.684C594.826 184.588 594.508 186.287 593.874 187.78L594.042 187.948C595.946 184.588 597.868 182.143 599.81 180.612C601.788 179.044 603.935 178.26 606.25 178.26C607.892 178.26 609.143 178.652 610.002 179.436C610.86 180.22 611.29 181.34 611.29 182.796C611.29 183.281 611.234 183.823 611.122 184.42C611.047 185.017 610.898 185.745 610.674 186.604C610.45 187.425 610.132 188.415 609.722 189.572C609.348 190.729 608.882 192.148 608.322 193.828C607.463 196.367 606.754 198.495 606.194 200.212C605.634 201.929 605.354 203.143 605.354 203.852C605.354 204.412 605.54 204.692 605.914 204.692C606.436 204.692 607.202 204.263 608.21 203.404C609.218 202.545 610.58 201.164 612.298 199.26L613.754 200.044C613.156 201.164 612.372 202.265 611.402 203.348C610.468 204.393 609.479 205.345 608.434 206.204C607.426 207.063 606.418 207.753 605.41 208.276C604.402 208.799 603.524 209.06 602.778 209.06C601.844 209.06 601.098 208.649 600.538 207.828C600.015 207.007 599.754 205.924 599.754 204.58C599.754 204.057 599.791 203.535 599.866 203.012C599.978 202.452 600.183 201.668 600.482 200.66C600.78 199.652 601.21 198.308 601.77 196.628C602.367 194.911 603.17 192.652 604.178 189.852C604.514 188.881 604.794 188.06 605.018 187.388C605.242 186.716 605.41 186.137 605.522 185.652C605.671 185.129 605.764 184.681 605.802 184.308C605.876 183.935 605.914 183.58 605.914 183.244C605.914 181.863 605.41 181.172 604.402 181.172ZM642.863 209.129C634.004 209.129 628.344 203.441 628.344 193.816C628.344 184.328 634.086 178.559 642.863 178.559C651.641 178.559 657.383 184.301 657.383 193.816C657.383 203.469 651.723 209.129 642.863 209.129ZM642.863 203.031C646.773 203.031 649.262 199.723 649.262 193.844C649.262 188.02 646.746 184.656 642.863 184.656C638.98 184.656 636.438 188.02 636.438 193.844C636.438 199.723 638.926 203.031 642.863 203.031ZM663.645 208.5V185.203H659.652V179.324H663.645V177.109C663.645 171.367 666.352 168.688 673.297 168.688C674.773 168.688 676.441 168.852 677.371 169.043V174.32C676.797 174.211 676.004 174.156 675.211 174.156C672.586 174.156 671.438 175.305 671.438 177.383V179.324H677.262V185.203H671.629V208.5H663.645ZM728.531 191.93C728.531 202.676 722.023 209.184 711.031 209.184C699.246 209.184 692.027 201.473 692.027 188.648C692.027 176.016 699.246 168.359 710.84 168.359C720.055 168.359 727 173.801 728.176 181.785H719.891C718.688 177.656 715.324 175.195 710.867 175.195C704.359 175.195 700.449 180.145 700.449 188.539C700.449 197.098 704.605 202.32 711.168 202.32C716.555 202.32 720.301 199.012 720.465 194.117L720.492 193.488H711.906V187.473H728.531V191.93ZM734 169.043H749.066C760.906 169.043 767.879 176.098 767.879 188.621C767.879 201.145 760.906 208.5 749.066 208.5H734V169.043ZM742.258 175.852V201.664H748.082C755.465 201.664 759.457 197.18 759.457 188.648C759.457 180.391 755.355 175.852 748.082 175.852H742.258ZM771.734 197.262H779.691C780.074 200.516 783.465 202.648 787.84 202.648C792.242 202.648 795.25 200.543 795.25 197.645C795.25 195.074 793.363 193.652 788.605 192.586L783.465 191.465C776.191 189.906 772.609 186.215 772.609 180.445C772.609 173.172 778.898 168.359 787.703 168.359C796.891 168.359 802.66 173.09 802.797 180.227H795.059C794.785 176.891 791.859 174.867 787.73 174.867C783.656 174.867 780.922 176.809 780.922 179.734C780.922 182.168 782.836 183.535 787.375 184.574L792.16 185.586C800.062 187.281 803.508 190.672 803.508 196.688C803.508 204.344 797.301 209.184 787.512 209.184C778.023 209.184 771.98 204.672 771.734 197.262ZM826.039 209.184C814.555 209.184 807.363 201.5 807.363 188.758C807.363 176.043 814.609 168.359 826.039 168.359C835.527 168.359 842.746 174.375 843.375 183.207H835.336C834.57 178.367 830.852 175.195 826.039 175.195C819.805 175.195 815.785 180.418 815.785 188.73C815.785 197.152 819.75 202.348 826.066 202.348C830.961 202.348 834.488 199.477 835.363 194.801H843.402C842.473 203.605 835.719 209.184 826.039 209.184ZM867.875 169.043V193.734C867.875 198.793 870.855 202.102 876.16 202.102C881.438 202.102 884.418 198.793 884.418 193.734V169.043H892.676V194.555C892.676 203.25 886.25 209.184 876.16 209.184C866.043 209.184 859.617 203.25 859.617 194.555V169.043H867.875ZM907.523 208.5H899.266V169.043H907.523V208.5ZM940.227 201.664V208.5H914.086V169.043H940.227V175.852H922.344V185.367H939.215V191.711H922.344V201.664H940.227ZM963.879 208.5H955.621V175.852H944.219V169.043H975.309V175.852H963.879V208.5Z" fill="#CFAAFF"/>
</g>
<g style="mix-blend-mode:lighten">
<path d="M167.941 245.828V243.176C169.172 243.121 170.033 243.039 170.525 242.93C171.309 242.757 171.947 242.41 172.439 241.891C172.777 241.535 173.032 241.061 173.205 240.469C173.305 240.113 173.355 239.849 173.355 239.676H176.596V259.5H172.604V245.828H167.941ZM187.552 253.416C187.552 254.209 187.68 254.865 187.935 255.385C188.409 256.342 189.27 256.82 190.519 256.82C191.285 256.82 191.95 256.561 192.515 256.041C193.089 255.512 193.377 254.756 193.377 253.771C193.377 252.468 192.848 251.598 191.791 251.16C191.189 250.914 190.241 250.791 188.947 250.791V248.002C190.214 247.984 191.098 247.861 191.599 247.633C192.465 247.25 192.898 246.475 192.898 245.309C192.898 244.552 192.675 243.937 192.228 243.463C191.791 242.989 191.171 242.752 190.369 242.752C189.448 242.752 188.769 243.044 188.332 243.627C187.903 244.21 187.698 244.99 187.716 245.965H184.08C184.116 244.98 184.285 244.046 184.586 243.162C184.905 242.387 185.406 241.672 186.089 241.016C186.6 240.551 187.206 240.195 187.908 239.949C188.61 239.703 189.471 239.58 190.492 239.58C192.388 239.58 193.914 240.072 195.072 241.057C196.239 242.032 196.822 243.344 196.822 244.994C196.822 246.161 196.476 247.145 195.783 247.947C195.345 248.449 194.89 248.79 194.416 248.973C194.771 248.973 195.282 249.278 195.947 249.889C196.94 250.809 197.437 252.067 197.437 253.662C197.437 255.339 196.854 256.816 195.687 258.092C194.53 259.359 192.811 259.992 190.533 259.992C187.726 259.992 185.775 259.076 184.681 257.244C184.107 256.269 183.788 254.993 183.724 253.416H187.552ZM200.259 247.51V244.734H202.337V240.578H206.193V244.734H208.612V247.51H206.193V255.385C206.193 255.995 206.27 256.378 206.425 256.533C206.58 256.679 207.054 256.752 207.847 256.752C207.965 256.752 208.088 256.752 208.216 256.752C208.353 256.743 208.485 256.734 208.612 256.725V259.637L206.767 259.705C204.926 259.769 203.668 259.45 202.993 258.748C202.556 258.301 202.337 257.613 202.337 256.684V247.51H200.259ZM220.731 244.215C221.652 244.215 222.486 244.374 223.233 244.693C223.99 245.012 224.61 245.5 225.093 246.156C225.503 246.712 225.753 247.286 225.845 247.879C225.936 248.462 225.981 249.419 225.981 250.75V259.5H222.003V250.436C222.003 249.633 221.866 248.986 221.593 248.494C221.237 247.801 220.563 247.455 219.569 247.455C218.539 247.455 217.755 247.801 217.218 248.494C216.689 249.178 216.425 250.158 216.425 251.434V259.5H212.542V239.416H216.425V246.539C216.99 245.673 217.641 245.072 218.38 244.734C219.127 244.388 219.911 244.215 220.731 244.215ZM253.896 239.348H259.953V259.5H256.029V245.869C256.029 245.477 256.034 244.93 256.043 244.229C256.052 243.518 256.057 242.971 256.057 242.588L252.242 259.5H248.154L244.367 242.588C244.367 242.971 244.372 243.518 244.381 244.229C244.39 244.93 244.395 245.477 244.395 245.869V259.5H240.471V239.348H246.596L250.26 255.193L253.896 239.348ZM273.166 252.254C272.92 252.409 272.669 252.536 272.414 252.637C272.168 252.728 271.826 252.814 271.388 252.896L270.513 253.061C269.693 253.206 269.105 253.384 268.75 253.594C268.148 253.949 267.847 254.501 267.847 255.248C267.847 255.913 268.03 256.396 268.394 256.697C268.768 256.989 269.219 257.135 269.748 257.135C270.586 257.135 271.356 256.889 272.058 256.396C272.769 255.904 273.138 255.007 273.166 253.703V252.254ZM270.8 250.436C271.52 250.344 272.035 250.23 272.345 250.094C272.901 249.857 273.179 249.488 273.179 248.986C273.179 248.376 272.965 247.956 272.537 247.729C272.117 247.492 271.498 247.373 270.677 247.373C269.757 247.373 269.105 247.601 268.722 248.057C268.449 248.394 268.267 248.85 268.175 249.424H264.416C264.498 248.12 264.862 247.049 265.509 246.211C266.539 244.898 268.308 244.242 270.814 244.242C272.446 244.242 273.895 244.566 275.162 245.213C276.429 245.86 277.062 247.081 277.062 248.877V255.713C277.062 256.187 277.071 256.761 277.089 257.436C277.117 257.946 277.194 258.292 277.322 258.475C277.449 258.657 277.641 258.807 277.896 258.926V259.5H273.658C273.539 259.199 273.457 258.917 273.412 258.652C273.366 258.388 273.33 258.087 273.302 257.75C272.765 258.333 272.145 258.83 271.443 259.24C270.604 259.723 269.657 259.965 268.599 259.965C267.25 259.965 266.134 259.582 265.25 258.816C264.375 258.042 263.937 256.948 263.937 255.535C263.937 253.703 264.643 252.377 266.056 251.557C266.831 251.11 267.97 250.791 269.474 250.6L270.8 250.436ZM290.029 244.242C290.101 244.242 290.161 244.247 290.206 244.256C290.261 244.256 290.375 244.26 290.548 244.27V248.262C290.302 248.234 290.083 248.216 289.892 248.207C289.7 248.198 289.545 248.193 289.427 248.193C287.859 248.193 286.807 248.704 286.269 249.725C285.968 250.299 285.818 251.183 285.818 252.377V259.5H281.894V244.598H285.613V247.195C286.214 246.202 286.738 245.523 287.185 245.158C287.914 244.548 288.862 244.242 290.029 244.242ZM303.145 249.943C303.072 249.387 302.886 248.886 302.585 248.439C302.147 247.838 301.468 247.537 300.548 247.537C299.235 247.537 298.337 248.189 297.854 249.492C297.599 250.185 297.471 251.105 297.471 252.254C297.471 253.348 297.599 254.227 297.854 254.893C298.319 256.132 299.194 256.752 300.479 256.752C301.391 256.752 302.038 256.506 302.421 256.014C302.804 255.521 303.036 254.883 303.118 254.1H307.096C307.005 255.285 306.577 256.406 305.811 257.463C304.59 259.167 302.781 260.02 300.384 260.02C297.986 260.02 296.223 259.309 295.093 257.887C293.962 256.465 293.397 254.619 293.397 252.35C293.397 249.788 294.022 247.797 295.27 246.375C296.519 244.953 298.242 244.242 300.438 244.242C302.307 244.242 303.833 244.661 305.018 245.5C306.212 246.339 306.919 247.82 307.137 249.943H303.145ZM319.448 244.215C320.368 244.215 321.202 244.374 321.95 244.693C322.706 245.012 323.326 245.5 323.809 246.156C324.219 246.712 324.47 247.286 324.561 247.879C324.652 248.462 324.698 249.419 324.698 250.75V259.5H320.719V250.436C320.719 249.633 320.582 248.986 320.309 248.494C319.954 247.801 319.279 247.455 318.286 247.455C317.256 247.455 316.472 247.801 315.934 248.494C315.405 249.178 315.141 250.158 315.141 251.434V259.5H311.258V239.416H315.141V246.539C315.706 245.673 316.358 245.072 317.096 244.734C317.843 244.388 318.627 244.215 319.448 244.215ZM342.168 239.156V259.5H338.572V239.156H342.168ZM357.696 239.348H361.975V251.734C361.975 253.12 362.139 254.132 362.468 254.77C362.978 255.9 364.09 256.465 365.804 256.465C367.508 256.465 368.615 255.9 369.126 254.77C369.454 254.132 369.618 253.12 369.618 251.734V239.348H373.897V251.734C373.897 253.876 373.565 255.544 372.899 256.738C371.66 258.926 369.294 260.02 365.804 260.02C362.313 260.02 359.943 258.926 358.694 256.738C358.029 255.544 357.696 253.876 357.696 251.734V239.348ZM383.186 259.5H379.002V239.348H383.186V259.5ZM403.426 242.916H392.762V247.195H402.551V250.695H392.762V255.877H403.918V259.5H388.646V239.348H403.426V242.916ZM423.242 239.348V242.916H417.212V259.5H412.974V242.916H406.918V239.348H423.242ZM423.48 262.74C424.264 262.521 424.838 262.157 425.202 261.646C425.576 261.136 425.79 260.421 425.845 259.5H423.48V255.426H427.691V258.953C427.691 259.573 427.609 260.22 427.445 260.895C427.28 261.569 426.975 262.152 426.529 262.645C426.045 263.173 425.476 263.57 424.82 263.834C424.172 264.107 423.726 264.244 423.48 264.244V262.74ZM453.733 245.76C453.733 244.712 453.455 243.964 452.899 243.518C452.352 243.071 451.582 242.848 450.588 242.848H446.664V248.781H450.588C451.582 248.781 452.352 248.54 452.899 248.057C453.455 247.574 453.733 246.808 453.733 245.76ZM457.903 245.732C457.903 248.111 457.301 249.793 456.098 250.777C454.895 251.762 453.177 252.254 450.944 252.254H446.664V259.5H442.481V239.348H451.258C453.282 239.348 454.895 239.867 456.098 240.906C457.301 241.945 457.903 243.554 457.903 245.732ZM470.363 252.254C470.117 252.409 469.867 252.536 469.611 252.637C469.365 252.728 469.023 252.814 468.586 252.896L467.711 253.061C466.891 253.206 466.303 253.384 465.947 253.594C465.346 253.949 465.045 254.501 465.045 255.248C465.045 255.913 465.227 256.396 465.592 256.697C465.965 256.989 466.417 257.135 466.945 257.135C467.784 257.135 468.554 256.889 469.256 256.396C469.967 255.904 470.336 255.007 470.363 253.703V252.254ZM467.998 250.436C468.718 250.344 469.233 250.23 469.543 250.094C470.099 249.857 470.377 249.488 470.377 248.986C470.377 248.376 470.163 247.956 469.734 247.729C469.315 247.492 468.695 247.373 467.875 247.373C466.954 247.373 466.303 247.601 465.92 248.057C465.646 248.394 465.464 248.85 465.373 249.424H461.613C461.695 248.12 462.06 247.049 462.707 246.211C463.737 244.898 465.505 244.242 468.012 244.242C469.643 244.242 471.092 244.566 472.359 245.213C473.626 245.86 474.26 247.081 474.26 248.877V255.713C474.26 256.187 474.269 256.761 474.287 257.436C474.314 257.946 474.392 258.292 474.52 258.475C474.647 258.657 474.839 258.807 475.094 258.926V259.5H470.855C470.737 259.199 470.655 258.917 470.609 258.652C470.564 258.388 470.527 258.087 470.5 257.75C469.962 258.333 469.342 258.83 468.641 259.24C467.802 259.723 466.854 259.965 465.797 259.965C464.448 259.965 463.331 259.582 462.447 258.816C461.572 258.042 461.135 256.948 461.135 255.535C461.135 253.703 461.841 252.377 463.254 251.557C464.029 251.11 465.168 250.791 466.672 250.6L467.998 250.436ZM487.39 244.242C488.931 244.242 490.188 244.648 491.164 245.459C492.148 246.261 492.64 247.596 492.64 249.465V259.5H488.648V250.436C488.648 249.652 488.543 249.05 488.334 248.631C487.951 247.865 487.222 247.482 486.146 247.482C484.824 247.482 483.918 248.043 483.425 249.164C483.17 249.757 483.043 250.513 483.043 251.434V259.5H479.16V244.625H482.92V246.799C483.421 246.033 483.895 245.482 484.341 245.145C485.143 244.543 486.16 244.242 487.39 244.242ZM501.724 242.82H497.827V239.225H501.724V242.82ZM495.954 262.357C496.173 262.376 496.328 262.385 496.419 262.385C496.51 262.394 496.592 262.398 496.665 262.398C497.048 262.398 497.335 262.303 497.527 262.111C497.727 261.929 497.827 261.569 497.827 261.031V244.666H501.724V261.1C501.724 262.604 501.428 263.715 500.835 264.436C500.243 265.156 499.081 265.516 497.349 265.516C497.23 265.516 497.053 265.511 496.816 265.502C496.588 265.493 496.301 265.484 495.954 265.475V262.357ZM515.059 252.254C514.813 252.409 514.563 252.536 514.307 252.637C514.061 252.728 513.72 252.814 513.282 252.896L512.407 253.061C511.587 253.206 510.999 253.384 510.643 253.594C510.042 253.949 509.741 254.501 509.741 255.248C509.741 255.913 509.923 256.396 510.288 256.697C510.662 256.989 511.113 257.135 511.641 257.135C512.48 257.135 513.25 256.889 513.952 256.396C514.663 255.904 515.032 255.007 515.059 253.703V252.254ZM512.694 250.436C513.414 250.344 513.929 250.23 514.239 250.094C514.795 249.857 515.073 249.488 515.073 248.986C515.073 248.376 514.859 247.956 514.43 247.729C514.011 247.492 513.391 247.373 512.571 247.373C511.651 247.373 510.999 247.601 510.616 248.057C510.343 248.394 510.16 248.85 510.069 249.424H506.309C506.391 248.12 506.756 247.049 507.403 246.211C508.433 244.898 510.201 244.242 512.708 244.242C514.339 244.242 515.789 244.566 517.055 245.213C518.322 245.86 518.956 247.081 518.956 248.877V255.713C518.956 256.187 518.965 256.761 518.983 257.436C519.011 257.946 519.088 258.292 519.216 258.475C519.343 258.657 519.535 258.807 519.79 258.926V259.5H515.552C515.433 259.199 515.351 258.917 515.305 258.652C515.26 258.388 515.223 258.087 515.196 257.75C514.658 258.333 514.039 258.83 513.337 259.24C512.498 259.723 511.55 259.965 510.493 259.965C509.144 259.965 508.027 259.582 507.143 258.816C506.268 258.042 505.831 256.948 505.831 255.535C505.831 253.703 506.537 252.377 507.95 251.557C508.725 251.11 509.864 250.791 511.368 250.6L512.694 250.436ZM531.881 244.27C533.841 244.27 535.372 244.976 536.475 246.389C537.587 247.801 538.143 249.624 538.143 251.857C538.143 254.173 537.596 256.091 536.502 257.613C535.409 259.135 533.882 259.896 531.922 259.896C530.692 259.896 529.703 259.65 528.955 259.158C528.509 258.867 528.026 258.356 527.506 257.627V259.5H523.692V239.375H527.575V246.539C528.067 245.846 528.609 245.318 529.202 244.953C529.903 244.497 530.797 244.27 531.881 244.27ZM530.883 256.684C531.886 256.684 532.665 256.278 533.221 255.467C533.777 254.656 534.055 253.589 534.055 252.268C534.055 251.21 533.918 250.335 533.645 249.643C533.125 248.33 532.168 247.674 530.774 247.674C529.361 247.674 528.39 248.316 527.862 249.602C527.588 250.285 527.452 251.169 527.452 252.254C527.452 253.53 527.734 254.587 528.299 255.426C528.864 256.264 529.726 256.684 530.883 256.684ZM551.853 239.348H556.132V251.734C556.132 253.12 556.296 254.132 556.625 254.77C557.135 255.9 558.247 256.465 559.961 256.465C561.665 256.465 562.772 255.9 563.283 254.77C563.611 254.132 563.775 253.12 563.775 251.734V239.348H568.054V251.734C568.054 253.876 567.722 255.544 567.056 256.738C565.817 258.926 563.451 260.02 559.961 260.02C556.47 260.02 554.1 258.926 552.851 256.738C552.186 255.544 551.853 253.876 551.853 251.734V239.348ZM581.431 244.242C582.971 244.242 584.229 244.648 585.204 245.459C586.189 246.261 586.681 247.596 586.681 249.465V259.5H582.689V250.436C582.689 249.652 582.584 249.05 582.374 248.631C581.991 247.865 581.262 247.482 580.187 247.482C578.865 247.482 577.958 248.043 577.466 249.164C577.211 249.757 577.083 250.513 577.083 251.434V259.5H573.2V244.625H576.96V246.799C577.461 246.033 577.935 245.482 578.382 245.145C579.184 244.543 580.2 244.242 581.431 244.242ZM595.696 242.82H591.745V239.225H595.696V242.82ZM591.745 244.598H595.696V259.5H591.745V244.598ZM610.071 244.598H614.254L608.881 259.5H604.766L599.42 244.598H603.795L606.899 255.59L610.071 244.598ZM623.748 247.414C622.846 247.414 622.144 247.697 621.643 248.262C621.15 248.827 620.84 249.592 620.713 250.559H626.77C626.706 249.529 626.391 248.749 625.826 248.221C625.27 247.683 624.577 247.414 623.748 247.414ZM623.748 244.201C624.988 244.201 626.104 244.434 627.098 244.898C628.091 245.363 628.911 246.097 629.559 247.1C630.142 247.984 630.52 249.009 630.693 250.176C630.794 250.859 630.835 251.844 630.816 253.129H620.617C620.672 254.624 621.141 255.672 622.025 256.273C622.563 256.647 623.21 256.834 623.967 256.834C624.769 256.834 625.421 256.606 625.922 256.15C626.195 255.904 626.437 255.562 626.646 255.125H630.625C630.525 256.009 630.064 256.907 629.244 257.818C627.968 259.268 626.182 259.992 623.885 259.992C621.989 259.992 620.316 259.382 618.867 258.16C617.418 256.939 616.693 254.952 616.693 252.199C616.693 249.62 617.345 247.642 618.648 246.266C619.961 244.889 621.661 244.201 623.748 244.201ZM642.949 244.242C643.022 244.242 643.081 244.247 643.127 244.256C643.181 244.256 643.295 244.26 643.468 244.27V248.262C643.222 248.234 643.004 248.216 642.812 248.207C642.621 248.198 642.466 248.193 642.347 248.193C640.78 248.193 639.727 248.704 639.189 249.725C638.888 250.299 638.738 251.183 638.738 252.377V259.5H634.814V244.598H638.533V247.195C639.134 246.202 639.658 245.523 640.105 245.158C640.834 244.548 641.782 244.242 642.949 244.242ZM650.2 254.742C650.282 255.435 650.46 255.927 650.734 256.219C651.217 256.738 652.11 256.998 653.413 256.998C654.179 256.998 654.785 256.884 655.232 256.656C655.687 256.428 655.915 256.087 655.915 255.631C655.915 255.193 655.733 254.861 655.368 254.633C655.004 254.405 653.65 254.013 651.308 253.457C649.622 253.038 648.432 252.514 647.739 251.885C647.047 251.265 646.7 250.372 646.7 249.205C646.7 247.829 647.238 246.648 648.314 245.664C649.398 244.671 650.92 244.174 652.88 244.174C654.739 244.174 656.252 244.548 657.419 245.295C658.595 246.033 659.269 247.314 659.443 249.137H655.546C655.491 248.635 655.35 248.239 655.122 247.947C654.694 247.419 653.965 247.154 652.935 247.154C652.087 247.154 651.481 247.286 651.116 247.551C650.761 247.815 650.583 248.125 650.583 248.48C650.583 248.927 650.775 249.251 651.157 249.451C651.54 249.661 652.894 250.021 655.218 250.531C656.767 250.896 657.93 251.447 658.704 252.186C659.47 252.933 659.853 253.867 659.853 254.988C659.853 256.465 659.301 257.673 658.198 258.611C657.105 259.541 655.409 260.006 653.112 260.006C650.77 260.006 649.038 259.514 647.917 258.529C646.805 257.536 646.249 256.273 646.249 254.742H650.2ZM668.157 242.82H664.206V239.225H668.157V242.82ZM664.206 244.598H668.157V259.5H664.206V244.598ZM671.813 247.51V244.734H673.891V240.578H677.746V244.734H680.166V247.51H677.746V255.385C677.746 255.995 677.824 256.378 677.979 256.533C678.134 256.679 678.608 256.752 679.401 256.752C679.519 256.752 679.642 256.752 679.77 256.752C679.907 256.743 680.039 256.734 680.166 256.725V259.637L678.321 259.705C676.48 259.769 675.222 259.45 674.547 258.748C674.11 258.301 673.891 257.613 673.891 256.684V247.51H671.813ZM684.67 262.357L685.162 262.385C685.545 262.403 685.91 262.389 686.256 262.344C686.602 262.298 686.894 262.193 687.131 262.029C687.359 261.874 687.568 261.551 687.76 261.059C687.96 260.566 688.042 260.266 688.006 260.156L682.537 244.598H686.871L690.125 255.59L693.201 244.598H697.344L692.23 259.254C691.246 262.079 690.467 263.829 689.893 264.504C689.318 265.188 688.17 265.529 686.447 265.529C686.101 265.529 685.823 265.525 685.613 265.516C685.404 265.516 685.089 265.502 684.67 265.475V262.357ZM698.771 262.74C699.555 262.521 700.129 262.157 700.494 261.646C700.867 261.136 701.082 260.421 701.136 259.5H698.771V255.426H702.982V258.953C702.982 259.573 702.9 260.22 702.736 260.895C702.572 261.569 702.267 262.152 701.82 262.645C701.337 263.173 700.767 263.57 700.111 263.834C699.464 264.107 699.017 264.244 698.771 264.244V262.74ZM716.802 249.588C716.802 246.07 717.745 243.358 719.632 241.453C721.272 239.794 723.36 238.965 725.893 238.965C729.284 238.965 731.763 240.077 733.331 242.301C734.197 243.549 734.662 244.803 734.725 246.061H730.514C730.241 245.094 729.89 244.365 729.462 243.873C728.696 242.998 727.561 242.561 726.057 242.561C724.526 242.561 723.319 243.18 722.434 244.42C721.55 245.65 721.108 247.396 721.108 249.656C721.108 251.917 721.573 253.612 722.503 254.742C723.442 255.863 724.631 256.424 726.071 256.424C727.548 256.424 728.673 255.941 729.448 254.975C729.876 254.455 730.232 253.676 730.514 252.637H734.684C734.32 254.833 733.386 256.62 731.882 257.996C730.387 259.372 728.468 260.061 726.126 260.061C723.227 260.061 720.949 259.131 719.29 257.271C717.631 255.403 716.802 252.842 716.802 249.588ZM747.213 244.215C748.134 244.215 748.968 244.374 749.715 244.693C750.472 245.012 751.092 245.5 751.575 246.156C751.985 246.712 752.235 247.286 752.327 247.879C752.418 248.462 752.463 249.419 752.463 250.75V259.5H748.485V250.436C748.485 249.633 748.348 248.986 748.075 248.494C747.719 247.801 747.045 247.455 746.051 247.455C745.021 247.455 744.237 247.801 743.7 248.494C743.171 249.178 742.907 250.158 742.907 251.434V259.5H739.024V239.416H742.907V246.539C743.472 245.673 744.123 245.072 744.862 244.734C745.609 244.388 746.393 244.215 747.213 244.215ZM765.73 252.254C765.484 252.409 765.234 252.536 764.979 252.637C764.732 252.728 764.391 252.814 763.953 252.896L763.078 253.061C762.258 253.206 761.67 253.384 761.314 253.594C760.713 253.949 760.412 254.501 760.412 255.248C760.412 255.913 760.594 256.396 760.959 256.697C761.333 256.989 761.784 257.135 762.312 257.135C763.151 257.135 763.921 256.889 764.623 256.396C765.334 255.904 765.703 255.007 765.73 253.703V252.254ZM763.365 250.436C764.085 250.344 764.6 250.23 764.91 250.094C765.466 249.857 765.744 249.488 765.744 248.986C765.744 248.376 765.53 247.956 765.102 247.729C764.682 247.492 764.062 247.373 763.242 247.373C762.322 247.373 761.67 247.601 761.287 248.057C761.014 248.394 760.831 248.85 760.74 249.424H756.98C757.062 248.12 757.427 247.049 758.074 246.211C759.104 244.898 760.872 244.242 763.379 244.242C765.01 244.242 766.46 244.566 767.727 245.213C768.993 245.86 769.627 247.081 769.627 248.877V255.713C769.627 256.187 769.636 256.761 769.654 257.436C769.682 257.946 769.759 258.292 769.887 258.475C770.014 258.657 770.206 258.807 770.461 258.926V259.5H766.223C766.104 259.199 766.022 258.917 765.977 258.652C765.931 258.388 765.895 258.087 765.867 257.75C765.329 258.333 764.71 258.83 764.008 259.24C763.169 259.723 762.221 259.965 761.164 259.965C759.815 259.965 758.699 259.582 757.814 258.816C756.939 258.042 756.502 256.948 756.502 255.535C756.502 253.703 757.208 252.377 758.621 251.557C759.396 251.11 760.535 250.791 762.039 250.6L763.365 250.436ZM782.757 244.242C784.298 244.242 785.556 244.648 786.531 245.459C787.515 246.261 788.007 247.596 788.007 249.465V259.5H784.015V250.436C784.015 249.652 783.91 249.05 783.701 248.631C783.318 247.865 782.589 247.482 781.513 247.482C780.192 247.482 779.285 248.043 778.793 249.164C778.537 249.757 778.41 250.513 778.41 251.434V259.5H774.527V244.625H778.287V246.799C778.788 246.033 779.262 245.482 779.709 245.145C780.511 244.543 781.527 244.242 782.757 244.242ZM798.513 244.242C799.415 244.242 800.217 244.443 800.919 244.844C801.621 245.236 802.191 245.783 802.628 246.484V239.375H806.579V259.5H802.792V257.436C802.236 258.32 801.603 258.962 800.892 259.363C800.181 259.764 799.297 259.965 798.239 259.965C796.499 259.965 795.031 259.263 793.837 257.859C792.652 256.447 792.06 254.637 792.06 252.432C792.06 249.889 792.643 247.888 793.81 246.43C794.986 244.971 796.553 244.242 798.513 244.242ZM799.361 256.684C800.463 256.684 801.302 256.273 801.876 255.453C802.45 254.633 802.737 253.571 802.737 252.268C802.737 250.445 802.277 249.141 801.357 248.357C800.792 247.883 800.135 247.646 799.388 247.646C798.249 247.646 797.41 248.079 796.872 248.945C796.344 249.802 796.079 250.868 796.079 252.145C796.079 253.521 796.348 254.624 796.886 255.453C797.433 256.273 798.258 256.684 799.361 256.684ZM815.54 242.82H811.589V239.225H815.54V242.82ZM811.589 244.598H815.54V259.5H811.589V244.598ZM827.125 256.301C828.037 256.301 828.807 255.959 829.436 255.275C830.065 254.583 830.379 253.484 830.379 251.98C830.379 250.568 830.078 249.492 829.477 248.754C828.884 248.016 828.087 247.646 827.084 247.646C825.717 247.646 824.774 248.289 824.254 249.574C823.981 250.258 823.844 251.101 823.844 252.104C823.844 252.969 823.99 253.74 824.282 254.414C824.81 255.672 825.758 256.301 827.125 256.301ZM826.155 244.242C826.902 244.242 827.554 244.356 828.11 244.584C829.058 244.976 829.823 245.696 830.407 246.744V244.598H834.194V258.734C834.194 260.658 833.87 262.107 833.223 263.082C832.111 264.759 829.978 265.598 826.825 265.598C824.92 265.598 823.366 265.224 822.162 264.477C820.959 263.729 820.294 262.613 820.166 261.127H824.405C824.514 261.583 824.692 261.911 824.938 262.111C825.357 262.467 826.064 262.645 827.057 262.645C828.461 262.645 829.399 262.175 829.873 261.236C830.183 260.635 830.338 259.623 830.338 258.201V257.244C829.965 257.882 829.564 258.361 829.135 258.68C828.36 259.272 827.353 259.568 826.114 259.568C824.2 259.568 822.668 258.898 821.52 257.559C820.381 256.21 819.811 254.387 819.811 252.09C819.811 249.875 820.362 248.016 821.465 246.512C822.568 244.999 824.131 244.242 826.155 244.242ZM847.461 252.254C847.215 252.409 846.964 252.536 846.709 252.637C846.463 252.728 846.121 252.814 845.684 252.896L844.809 253.061C843.988 253.206 843.4 253.384 843.045 253.594C842.443 253.949 842.143 254.501 842.143 255.248C842.143 255.913 842.325 256.396 842.689 256.697C843.063 256.989 843.514 257.135 844.043 257.135C844.882 257.135 845.652 256.889 846.354 256.396C847.064 255.904 847.434 255.007 847.461 253.703V252.254ZM845.096 250.436C845.816 250.344 846.331 250.23 846.641 250.094C847.197 249.857 847.475 249.488 847.475 248.986C847.475 248.376 847.26 247.956 846.832 247.729C846.413 247.492 845.793 247.373 844.973 247.373C844.052 247.373 843.4 247.601 843.018 248.057C842.744 248.394 842.562 248.85 842.471 249.424H838.711C838.793 248.12 839.158 247.049 839.805 246.211C840.835 244.898 842.603 244.242 845.109 244.242C846.741 244.242 848.19 244.566 849.457 245.213C850.724 245.86 851.357 247.081 851.357 248.877V255.713C851.357 256.187 851.367 256.761 851.385 257.436C851.412 257.946 851.49 258.292 851.617 258.475C851.745 258.657 851.936 258.807 852.191 258.926V259.5H847.953C847.835 259.199 847.753 258.917 847.707 258.652C847.661 258.388 847.625 258.087 847.598 257.75C847.06 258.333 846.44 258.83 845.738 259.24C844.9 259.723 843.952 259.965 842.895 259.965C841.546 259.965 840.429 259.582 839.545 258.816C838.67 258.042 838.232 256.948 838.232 255.535C838.232 253.703 838.939 252.377 840.352 251.557C841.126 251.11 842.266 250.791 843.77 250.6L845.096 250.436ZM864.324 244.242C864.397 244.242 864.456 244.247 864.502 244.256C864.556 244.256 864.67 244.26 864.843 244.27V248.262C864.597 248.234 864.379 248.216 864.187 248.207C863.996 248.198 863.841 248.193 863.722 248.193C862.155 248.193 861.102 248.704 860.564 249.725C860.263 250.299 860.113 251.183 860.113 252.377V259.5H856.189V244.598H859.908V247.195C860.509 246.202 861.033 245.523 861.48 245.158C862.209 244.548 863.157 244.242 864.324 244.242ZM876.757 244.215C877.678 244.215 878.512 244.374 879.259 244.693C880.015 245.012 880.635 245.5 881.118 246.156C881.529 246.712 881.779 247.286 881.87 247.879C881.961 248.462 882.007 249.419 882.007 250.75V259.5H878.029V250.436C878.029 249.633 877.892 248.986 877.618 248.494C877.263 247.801 876.588 247.455 875.595 247.455C874.565 247.455 873.781 247.801 873.243 248.494C872.715 249.178 872.45 250.158 872.45 251.434V259.5H868.568V239.416H872.45V246.539C873.015 245.673 873.667 245.072 874.405 244.734C875.153 244.388 875.937 244.215 876.757 244.215Z" fill="#CFAAFF"/>
</g>
<defs>
<filter id="filter0_d_1_30" x="0.200012" y="52.9" width="1049" height="83.6" filterUnits="userSpaceOnUse" color-interpolation-filters="sRGB">
<feFlood flood-opacity="0" result="BackgroundImageFix"/>
<feColorMatrix in="SourceAlpha" type="matrix" values="0 0 0 0 0 0 0 0 0 0 0 0 0 0 0 0 0 0 127 0" result="hardAlpha"/>
<feOffset dy="4"/>
<feGaussianBlur stdDeviation="2"/>
<feComposite in2="hardAlpha" operator="out"/>
<feColorMatrix type="matrix" values="0 0 0 0 0 0 0 0 0 0 0 0 0 0 0 0 0 0 0.25 0"/>
<feBlend mode="normal" in2="BackgroundImageFix" result="effect1_dropShadow_1_30"/>
<feBlend mode="normal" in="SourceGraphic" in2="effect1_dropShadow_1_30" result="shape"/>
</filter>
<linearGradient id="paint0_linear_1_30" x1="1058" y1="-13.0001" x2="-292" y2="-32.5001" gradientUnits="userSpaceOnUse">
<stop offset="0.19267" stop-color="#6F1FD5"/>
<stop offset="0.583365" stop-color="#B55BA2"/>
</linearGradient>
</defs>
</svg>
